<svg width="29" height="29" viewBox="0 0 29 29" fill="none" xmlns="http://www.w3.org/2000/svg">
<path d="M14.5 0C10.6544 0 6.96623 1.52767 4.24695 4.24695C1.52767 6.96623 0 10.6544 0 14.5C0 18.3456 1.52767 22.0338 4.24695 24.753C6.96623 27.4723 10.6544 29 14.5 29C18.3456 29 22.0338 27.4723 24.753 24.753C27.4723 22.0338 29 18.3456 29 14.5C29 10.6544 27.4723 6.96623 24.753 4.24695C22.0338 1.52767 18.3456 0 14.5 0V0ZM18.322 26.3211H18.2096C18.1252 26.3259 18.0407 26.3133 17.9613 26.2843C17.8819 26.2552 17.8093 26.2101 17.748 26.152C17.6913 26.0921 17.6472 26.0214 17.6181 25.9443C17.5891 25.8671 17.5757 25.7849 17.5788 25.7025V24.0035C17.5861 23.4393 17.5909 22.8677 17.5909 22.2925C17.5889 21.872 17.5275 21.4538 17.4085 21.0504C17.2957 20.6426 17.0684 20.2757 16.7535 19.9931C17.5957 19.9118 18.4237 19.7204 19.2161 19.424C19.8846 19.1698 20.4893 18.7721 20.9875 18.2591C21.4793 17.7432 21.8455 17.1197 22.0569 16.4394C22.3141 15.6063 22.4365 14.7374 22.4194 13.8656C22.4241 13.257 22.3177 12.6525 22.1053 12.0821C21.8894 11.5072 21.5631 10.9801 21.1446 10.5306C21.235 10.3039 21.3006 10.0681 21.3404 9.82738C21.3802 9.58571 21.4008 9.34163 21.4008 9.09754C21.4008 8.78338 21.3645 8.46921 21.292 8.1635C21.2262 7.84994 21.1369 7.54176 21.025 7.24154C20.9823 7.22488 20.9367 7.21667 20.8909 7.21738H20.758C20.48 7.21979 20.207 7.26571 19.9435 7.3515C19.6534 7.4362 19.3695 7.54118 19.0941 7.66567C18.8201 7.78845 18.5535 7.92683 18.2954 8.08013C18.0356 8.23358 17.806 8.381 17.603 8.51754C15.5703 7.95099 13.4213 7.95099 11.3885 8.51754C11.1618 8.36598 10.9314 8.22013 10.6974 8.08013C10.4356 7.92555 10.1644 7.78753 9.88538 7.66687C9.61068 7.53826 9.32573 7.43277 9.0335 7.3515C8.77528 7.26619 8.50551 7.22096 8.23358 7.21738H8.10067C8.05521 7.21673 8.01007 7.22494 7.96775 7.24154C7.85424 7.54218 7.76139 7.85022 7.68983 8.1635C7.62458 8.47042 7.59317 8.78338 7.59196 9.09754C7.59196 9.34163 7.6125 9.58571 7.65358 9.82738C7.69346 10.0678 7.7575 10.3035 7.84692 10.5306C7.42955 10.9807 7.10442 11.5082 6.88992 12.0833C6.67638 12.6536 6.56868 13.258 6.57213 13.8668C6.55522 14.7339 6.67428 15.5983 6.92496 16.4285C7.14367 17.1088 7.50858 17.7335 7.99312 18.2603C8.49458 18.7703 9.09875 19.1666 9.76454 19.4252C10.5536 19.7273 11.3801 19.9206 12.2211 20.0003C11.9863 20.2132 11.8 20.474 11.6749 20.7652C11.5559 21.0532 11.4747 21.3554 11.4333 21.6642C10.9899 21.8765 10.505 21.9879 10.0135 21.9905C9.55696 22.0087 9.10643 21.8818 8.72658 21.628C8.3622 21.3579 8.05361 21.0198 7.81792 20.6323C7.71243 20.4695 7.59447 20.3152 7.46508 20.1707C7.32859 20.0188 7.17809 19.88 7.01558 19.7563C6.85541 19.6366 6.67983 19.539 6.49358 19.4663C6.31034 19.3859 6.11246 19.3444 5.91238 19.3442C5.86404 19.3454 5.81571 19.3502 5.76737 19.3563C5.70137 19.3561 5.6356 19.3642 5.57163 19.3805C5.5154 19.3952 5.46222 19.4197 5.41454 19.453C5.39286 19.4649 5.37474 19.4824 5.362 19.5036C5.34927 19.5248 5.34238 19.549 5.34204 19.5738C5.34712 19.6319 5.3649 19.6883 5.39413 19.7388C5.42336 19.7893 5.46333 19.8328 5.51121 19.8662C5.62358 19.9556 5.71663 20.0245 5.79154 20.0728L5.82779 20.0982C5.9885 20.2227 6.14317 20.3568 6.28938 20.5006C6.42471 20.619 6.54675 20.7531 6.65188 20.8993C6.76063 21.0431 6.85488 21.1966 6.931 21.3597C7.01921 21.5216 7.11225 21.7077 7.21013 21.9192C7.43729 22.4919 7.84088 22.9765 8.36288 23.3027C8.91025 23.5963 9.52408 23.7425 10.1464 23.7268C10.3566 23.7268 10.5681 23.7148 10.7771 23.6906C10.985 23.6568 11.1916 23.6217 11.3994 23.5806V25.6868C11.4032 25.7717 11.389 25.8564 11.3577 25.9355C11.3265 26.0145 11.2789 26.0861 11.2182 26.1455C11.1574 26.2049 11.0847 26.2509 11.005 26.2803C10.9252 26.3097 10.8402 26.322 10.7554 26.3163H10.6805C7.86267 25.406 5.46247 23.5196 3.91206 20.9967C2.36165 18.4739 1.76292 15.4804 2.22367 12.5553C2.68443 9.63018 4.1744 6.96568 6.42528 5.0416C8.67616 3.11752 11.54 2.06029 14.5012 2.06029C17.4624 2.06029 20.3263 3.11752 22.5771 5.0416C24.828 6.96568 26.318 9.63018 26.7787 12.5553C27.2395 15.4804 26.6408 18.4739 25.0904 20.9967C23.5399 23.5196 21.1397 25.406 18.322 26.3163V26.3223V26.3211Z" fill="#848484"/>
</svg>
