<svg width="238" height="21" viewBox="0 0 238 21" fill="none" xmlns="http://www.w3.org/2000/svg">
<path opacity="0.5" d="M42.9242 20.7494C37.0193 18.1882 7.40699 18.6522 1.84625 20.007C1.75852 20.0256 1.34686 20.1091 1.25913 20.1091C0.348087 19.9142 -0.853142 13.5853 0.887965 7.43265C2.02846 3.39586 3.08797 2.79266 6.18552 3.11746C6.98184 3.20097 10.1536 3.21026 14.034 3.21954C14.9923 3.21954 16.0046 3.20098 16.9831 3.1453C18.1168 3.08034 19.3451 3.02466 20.5733 2.99682C29.515 2.80194 37.5929 3.71137 47.4255 3.90625C47.9114 4.33313 49.4095 3.04322 49.6727 3.54433C49.8819 3.84129 53.8028 4.11041 59.7347 4.20321C65.6598 4.29601 73.6028 4.18465 81.7955 4.37025C83.8402 4.41665 92.8697 4.81569 93.8145 4.85281C97.6139 5.00129 101.224 5.01057 104.416 4.97345C110.8 4.88993 115.518 4.53729 116.8 4.45377C119.911 4.25889 117.468 5.17761 121.132 4.62081C139.589 1.8461 148.369 2.43074 152.83 2.0317C163.742 1.03874 159.315 3.17313 180.411 3.12674C182.22 3.12674 183.873 3.06178 185.472 2.93186C186.809 2.8205 190.136 2.50498 193.53 1.7997C194.475 1.60482 195.17 1.43778 195.521 1.27074C196.209 0.955217 196.742 0.973777 196.763 1.27074C196.796 1.27074 205.805 0.435538 211.967 0.166418C212.055 0.166418 214.855 0.0921778 214.896 0.194258C215.044 0.481937 215.604 0.593297 216.124 0.379858C217.359 -0.00990206 226.186 -0.650221 234.527 1.7533C236.579 2.50498 237.942 3.21026 237.975 3.43297C238.191 4.79713 236.95 7.58113 235.479 10.2909C230.707 19.0512 231.355 17.2509 222.771 16.1837C213.998 15.0886 210.124 16.5734 206.399 16.9446C205.151 17.0653 203.369 17.2694 201.23 17.5014C196.924 17.9562 191.134 18.7821 185.047 18.9213C184.278 18.9398 183.515 18.9398 182.753 18.9584C181.983 18.9677 181.282 18.9398 180.546 18.9306C179.095 18.912 171.01 18.5965 168.844 18.4758C161.711 18.0954 162.743 17.9005 151.858 18.68C150.758 17.7891 146.5 19.8864 143.956 18.448C143.078 17.9562 138.435 18.0582 135.804 18.5501C135.014 18.6986 130.479 20.4061 111.334 20.7494C98.7206 20.9814 88.8746 20.2762 87.039 21C82.2071 19.673 70.0194 20.0442 65.093 20.2112C53.6003 20.601 48.8696 20.8237 42.9242 20.7494Z" fill="#C2F185"/>
</svg>
