<svg width="22" height="26" viewBox="0 0 22 26" fill="none" xmlns="http://www.w3.org/2000/svg">
<path d="M2.83089 11.1716V10.3381H1.99745V11.1716H2.83089ZM9.49841 11.1716V10.3381H8.66497V11.1716H9.49841ZM21.1666 6.17094H22V5.82589L21.7567 5.58086L21.1666 6.17094V6.17094ZM16.1659 1.17029L16.756 0.580218L16.511 0.336853H16.1659V1.17029ZM2.83089 12.005H4.49777V10.3381H2.83089V12.005ZM3.66433 18.6725V14.5053H1.99745V18.6725H3.66433ZM3.66433 14.5053V11.1716H1.99745V14.5053H3.66433ZM4.49777 13.6719H2.83089V15.3388H4.49777V13.6719ZM5.33121 12.8385C5.33121 13.0595 5.2434 13.2715 5.0871 13.4278C4.9308 13.5841 4.71881 13.6719 4.49777 13.6719V15.3388C5.1609 15.3388 5.79686 15.0754 6.26576 14.6065C6.73466 14.1376 6.99809 13.5016 6.99809 12.8385H5.33121ZM4.49777 12.005C4.71881 12.005 4.9308 12.0928 5.0871 12.2491C5.2434 12.4054 5.33121 12.6174 5.33121 12.8385H6.99809C6.99809 12.1753 6.73466 11.5394 6.26576 11.0705C5.79686 10.6016 5.1609 10.3381 4.49777 10.3381V12.005ZM9.49841 12.005H11.1653V10.3381H9.49841V12.005ZM10.3319 18.6725V14.5053H8.66497V18.6725H10.3319ZM10.3319 14.5053V11.1716H8.66497V14.5053H10.3319ZM11.1653 13.6719H9.49841V15.3388H11.1653V13.6719ZM11.9987 12.8385C11.9987 13.0595 11.9109 13.2715 11.7546 13.4278C11.5983 13.5841 11.3863 13.6719 11.1653 13.6719V15.3388C11.8284 15.3388 12.4644 15.0754 12.9333 14.6065C13.4022 14.1376 13.6656 13.5016 13.6656 12.8385H11.9987ZM11.1653 12.005C11.3863 12.005 11.5983 12.0928 11.7546 12.2491C11.9109 12.4054 11.9987 12.6174 11.9987 12.8385H13.6656C13.6656 12.1753 13.4022 11.5394 12.9333 11.0705C12.4644 10.6016 11.8284 10.3381 11.1653 10.3381V12.005ZM16.9994 10.3381V18.6725H18.6663V10.3381H16.9994ZM15.3325 12.005H20.3331V10.3381H15.3325V12.005ZM1.99745 8.67126V2.83717H0.330566V8.67126H1.99745ZM20.3331 6.17094V8.67126H22V6.17094H20.3331ZM2.83089 2.00373H16.1659V0.336853H2.83089V2.00373ZM15.5759 1.76037L20.5765 6.76101L21.7567 5.58086L16.756 0.580218L15.5759 1.76037V1.76037ZM1.99745 2.83717C1.99745 2.61613 2.08526 2.40414 2.24156 2.24784C2.39786 2.09154 2.60985 2.00373 2.83089 2.00373V0.336853C2.16776 0.336853 1.53179 0.600279 1.06289 1.06918C0.593992 1.53808 0.330566 2.17405 0.330566 2.83717H1.99745ZM0.330566 20.3394V22.8397H1.99745V20.3394H0.330566ZM2.83089 25.3401H19.4997V23.6732H2.83089V25.3401ZM22 22.8397V20.3394H20.3331V22.8397H22ZM19.4997 25.3401C20.1628 25.3401 20.7988 25.0766 21.2677 24.6077C21.7366 24.1388 22 23.5029 22 22.8397H20.3331C20.3331 23.0608 20.2453 23.2728 20.089 23.4291C19.9327 23.5854 19.7207 23.6732 19.4997 23.6732V25.3401ZM0.330566 22.8397C0.330566 23.5029 0.593992 24.1388 1.06289 24.6077C1.53179 25.0766 2.16776 25.3401 2.83089 25.3401V23.6732C2.60985 23.6732 2.39786 23.5854 2.24156 23.4291C2.08526 23.2728 1.99745 23.0608 1.99745 22.8397H0.330566Z" fill="#848484"/>
</svg>
