<svg width="10" height="657" viewBox="0 0 10 657" fill="none" xmlns="http://www.w3.org/2000/svg">
<path d="M7.81878 1C7.81878 10.1231 6.8385 19.8638 7.49423 29.4408C8.1622 39.1966 8.08432 49.616 8.08432 59.6053C8.08432 72.2396 8.15542 84.8333 8.08432 97.5263C8.04095 105.267 7.21097 112.738 7.03691 120.365C6.86933 127.708 6.75662 134.955 6.75662 142.342C6.75662 156.311 5.69445 170.006 5.69445 183.902C5.69445 201.361 6.72246 217.974 7.49423 235.23C7.83756 242.906 7.93501 250.587 8.09907 258.308C8.25351 265.576 8.29208 273.772 8.67441 280.907C9.43996 295.194 8.6154 310.284 8.6154 324.67C8.6154 341.373 7.63127 357.205 7.30245 373.747C6.92917 392.525 6.09331 410.707 5.29614 429.336C4.47569 448.508 3.57013 468.538 3.57013 487.941C3.57013 496.336 3.57013 504.731 3.57013 513.126C3.57013 519.289 3.59255 526.748 3.17182 532.757C2.24415 546.004 3.99947 560.215 3.17182 573.646C2.78584 579.91 3.05202 586.595 2.7145 592.894C2.35386 599.624 2.82061 606.689 2.3752 613.339C2.03641 618.397 2.24243 624.112 2.24243 629.283C2.24243 633.074 1.88943 636.776 1.7261 640.487C1.59923 643.369 1.44581 647.155 1.44581 649.967C1.44581 652.568 0.654621 653.441 1.18027 656" stroke="#756F6F" stroke-linecap="round"/>
</svg>
